<?xml version="1.0" standalone="no"?>
<!DOCTYPE svg PUBLIC "-//W3C//DTD SVG 1.1//EN" "http://www.w3.org/Graphics/SVG/1.1/DTD/svg11.dtd" >
<svg xmlns="http://www.w3.org/2000/svg">
<metadata>Generated by IcoMoon</metadata>
<defs>
<font id="icomoon" horiz-adv-x="1024">
<font-face units-per-em="1024" ascent="960" descent="-64" />
<missing-glyph horiz-adv-x="1024" />
<glyph unicode="&#x20;" horiz-adv-x="512" d="" />
<glyph unicode="&#xe900;" glyph-name="tour-chat01" d="M981.333 446.293c0 0-1.707-1.707-1.707-1.707-40.96-39.253-80.213-76.8-121.173-116.053-52.907-51.2-116.053-88.747-186.027-110.933-29.013-8.533-58.027-15.36-87.040-20.48-20.48-3.413-40.96-5.12-61.44-5.12s-40.96 0-63.147 1.707c-44.373 5.12-87.040 13.653-128 30.72-44.373 17.067-87.040 40.96-124.587 68.267-13.653 10.24-27.307 22.187-39.253 34.133-40.96 39.253-83.627 80.213-124.587 119.467 0 0-1.707 1.707-1.707 1.707s0 0 0 0 1.707 1.707 1.707 1.707c39.253 37.547 76.8 75.093 116.053 110.933 13.653 13.653 29.013 27.307 46.080 39.253 46.080 34.133 95.573 61.44 150.187 78.507 40.96 13.653 83.627 20.48 126.293 22.187 3.413 0 6.827 0 10.24 0 11.947 0 22.187 0 34.133 0 0 0 1.707 0 1.707 0 10.24 0 20.48-1.707 30.72-1.707 20.48-1.707 40.96-5.12 61.44-10.24 40.96-8.533 80.213-22.187 116.053-40.96 42.667-22.187 81.92-49.493 116.053-81.92 42.667-37.547 85.333-78.507 128-119.467-1.707 1.707 0 0 0 0s0 0 0 0zM90.453 449.707c0 0 1.707-1.707 1.707-1.707 27.307-25.6 54.613-52.907 81.92-78.507 11.947-10.24 22.187-22.187 34.133-32.427 49.493-42.667 105.813-73.387 168.96-92.16 32.427-10.24 64.853-15.36 98.987-18.773 20.48-1.707 40.96-1.707 61.44-1.707 22.187 1.707 46.080 3.413 68.267 8.533 40.96 8.533 81.92 22.187 119.467 40.96 40.96 20.48 76.8 46.080 109.227 76.8s64.853 63.147 98.987 93.867c0 0 1.707 1.707 1.707 1.707s-1.707 1.707-1.707 1.707c-34.133 32.427-66.56 64.853-100.693 97.28-10.24 10.24-20.48 18.773-32.427 27.307-35.84 29.013-76.8 51.2-121.173 68.267-56.32 22.187-116.053 32.427-177.493 30.72-17.067 0-35.84-1.707-52.907-3.413-29.013-3.413-58.027-10.24-85.333-18.773-66.56-22.187-124.587-56.32-175.787-104.107-32.427-30.72-64.853-61.44-95.573-92.16-1.707-1.707-1.707-3.413-1.707-3.413zM312.32 448c0 105.813 88.747 192.853 201.387 192.853 109.227 0 197.973-85.333 197.973-192.853s-90.453-192.853-201.387-191.147c-110.933 0-199.68 87.040-197.973 191.147zM677.547 448c0 87.040-73.387 160.427-165.547 160.427s-165.547-71.68-167.253-158.72c0-88.747 75.093-160.427 167.253-160.427 92.16-1.707 165.547 71.68 165.547 158.72z" />
<glyph unicode="&#xe901;" glyph-name="tour-chat02" d="M981.333 543.573c0-1.707 0-3.413 0-3.413 0-3.413 0-6.827-1.707-8.533-1.707-10.24-6.827-18.773-15.36-25.6-8.533-8.533-17.067-17.067-25.6-25.6-34.133-34.133-68.267-66.56-102.4-100.693-13.653-13.653-29.013-27.307-42.667-40.96-11.947-11.947-17.067-25.6-13.653-40.96 1.707-15.36 5.12-30.72 6.827-46.080 5.12-30.72 10.24-63.147 15.36-93.867s10.24-59.733 15.36-90.453c1.707-5.12 1.707-11.947 1.707-18.773 0-23.893-15.36-44.373-37.547-51.2-1.707 0-3.413-1.707-5.12-1.707-5.12 0-8.533 0-13.653 0 0 0-1.707 0-1.707 0-6.827 1.707-11.947 3.413-18.773 6.827-13.653 6.827-27.307 13.653-39.253 20.48-56.32 29.013-112.64 59.733-168.96 88.747-17.067 8.533-32.427 8.533-49.493 0-3.413-1.707-6.827-3.413-8.533-5.12-66.56-35.84-133.12-69.973-199.68-105.813-5.12-3.413-10.24-5.12-17.067-6.827 0 0-1.707 0-1.707 0-5.12 0-8.533 0-13.653 0-1.707 0-5.12 1.707-6.827 1.707-22.187 6.827-40.96 29.013-35.84 59.733 6.827 35.84 11.947 71.68 18.773 107.52 6.827 42.667 13.653 83.627 22.187 126.293 3.413 18.773-1.707 34.133-15.36 46.080-56.32 56.32-114.347 110.933-170.667 167.253-6.827 6.827-11.947 17.067-15.36 27.307 0 1.707-1.707 1.707-1.707 3.413 0 3.413 0 8.533 0 11.947 0 1.707 1.707 3.413 1.707 3.413 5.12 22.187 20.48 37.547 42.667 40.96 17.067 1.707 34.133 5.12 51.2 6.827 18.773 3.413 37.547 5.12 56.32 8.533 20.48 3.413 40.96 6.827 61.44 8.533 20.48 3.413 40.96 6.827 63.147 8.533 20.48 3.413 34.133 11.947 42.667 30.72 6.827 11.947 11.947 25.6 18.773 37.547 18.773 39.253 37.547 78.507 58.027 117.76 10.24 20.48 18.773 39.253 29.013 59.733 6.827 15.36 18.773 23.893 35.84 27.307 1.707 0 3.413 0 5.12 1.707 3.413 0 6.827 0 10.24 0 0 0 1.707 0 1.707 0 17.067-3.413 30.72-13.653 37.547-29.013 5.12-11.947 11.947-23.893 17.067-35.84 23.893-49.493 47.787-98.987 73.387-148.48 5.12-10.24 10.24-22.187 17.067-32.427 8.533-13.653 20.48-23.893 35.84-25.6 13.653-1.707 25.6-3.413 39.253-5.12 18.773-3.413 37.547-5.12 58.027-8.533 18.773-3.413 37.547-5.12 56.32-8.533s37.547-5.12 56.32-8.533c10.24-1.707 20.48-3.413 30.72-5.12 22.187-3.413 37.547-22.187 39.253-44.373 3.413 1.707 3.413 0 3.413-1.707zM242.347 46.933c0-8.533 8.533-15.36 15.36-11.947 1.707 0 1.707 1.707 3.413 1.707 37.547 20.48 75.093 39.253 112.64 59.733 32.427 17.067 64.853 34.133 97.28 51.2 27.307 13.653 56.32 13.653 83.627 0 44.373-23.893 90.453-47.787 134.827-71.68 25.6-13.653 51.2-27.307 75.093-39.253 5.12-1.707 8.533-3.413 13.653 0s5.12 6.827 5.12 11.947c-3.413 23.893-8.533 47.787-11.947 71.68-5.12 25.6-8.533 51.2-13.653 75.093-5.12 25.6-8.533 51.2-13.653 76.8-1.707 8.533-3.413 15.36-3.413 23.893 0 27.307 8.533 49.493 27.307 68.267 8.533 8.533 17.067 17.067 25.6 25.6 40.96 39.253 81.92 80.213 121.173 119.467 6.827 6.827 15.36 15.36 22.187 22.187 3.413 3.413 5.12 6.827 3.413 11.947s-5.12 6.827-8.533 8.533c-1.707 0-3.413 0-3.413 0-11.947 1.707-22.187 3.413-34.133 5.12-20.48 3.413-40.96 6.827-61.44 8.533-18.773 3.413-37.547 5.12-56.32 8.533s-37.547 5.12-58.027 8.533c-8.533 1.707-18.773 1.707-27.307 5.12-29.013 6.827-49.493 22.187-61.44 49.493-5.12 11.947-11.947 23.893-17.067 35.84-23.893 47.787-46.080 95.573-69.973 141.653-8.533 13.653-13.653 25.6-20.48 39.253-1.707 3.413-3.413 5.12-6.827 6.827-6.827 1.707-10.24 0-13.653-6.827-18.773-39.253-37.547-78.507-56.32-116.053-15.36-32.427-32.427-66.56-47.787-98.987-13.653-25.6-35.84-42.667-63.147-47.787-11.947-1.707-22.187-3.413-34.133-5.12-18.773-3.413-37.547-5.12-56.32-8.533-17.067-1.707-34.133-5.12-51.2-6.827-18.773-3.413-37.547-5.12-56.32-8.533-13.653-1.707-27.307-3.413-40.96-6.827-5.12 0-8.533-3.413-10.24-8.533s0-8.533 3.413-11.947c3.413-1.707 5.12-5.12 6.827-6.827 35.84-34.133 71.68-69.973 107.52-104.107 18.773-18.773 39.253-37.547 58.027-56.32 20.48-20.48 29.013-47.787 25.6-76.8-1.707-15.36-5.12-29.013-6.827-44.373-5.12-30.72-10.24-59.733-15.36-90.453s-10.24-61.44-15.36-90.453c-5.12-8.533-6.827-13.653-6.827-18.773z" />
<glyph unicode="&#xe902;" glyph-name="tour-chat03" d="M972.8 753.493c0-256 0-510.293 0-766.293-312.32 0-626.347 0-938.667 0 0 256 0 510.293 0 766.293 1.707 0 3.413 0 5.12 0 47.787 0 93.867 0 141.653 0 3.413 0 8.533 0 11.947 3.413 32.427 18.773 66.56 35.84 98.987 54.613 51.2 27.307 100.693 56.32 150.187 87.040 1.707 1.707 5.12 3.413 6.827 5.12 11.947 10.24 23.893 17.067 40.96 20.48 3.413 0 5.12 1.707 6.827 1.707 5.12 0 10.24 0 15.36 0 0 0 1.707 0 1.707 0 17.067-1.707 32.427-10.24 46.080-22.187 1.707-1.707 3.413-1.707 3.413-3.413 11.947-6.827 22.187-13.653 34.133-20.48 71.68-42.667 146.773-83.627 220.16-122.88 1.707-1.707 5.12-1.707 6.827-1.707 47.787 0 95.573 0 143.36 0 3.413-1.707 3.413-1.707 5.12-1.707zM66.56 17.92c291.84 0 583.68 0 875.52 0 0 197.973 0 395.947 0 593.92-291.84 0-583.68 0-875.52 0 0-197.973 0-395.947 0-593.92zM254.293 753.493c165.547 0 331.093 0 496.64 0 0 0 1.707 0 1.707 0s0 0 0 0 0 0 0 0c-56.32 30.72-112.64 61.44-167.253 95.573 0 0-1.707 0-1.707 0s0 0 0 0 0 0 0 0c1.707-46.080-35.84-80.213-75.093-80.213-20.48 0-37.547 5.12-52.907 18.773-18.773 17.067-29.013 37.547-27.307 63.147-59.733-32.427-116.053-64.853-174.080-97.28zM395.947 502.613c8.533 0 15.36-6.827 15.36-15.36s-6.827-15.36-15.36-15.36c-8.533 0-15.36 6.827-15.36 15.36-1.707 8.533 5.12 15.36 15.36 15.36zM738.987 487.253c0-8.533-6.827-15.36-15.36-15.36s-15.36 6.827-15.36 15.36c0 8.533 6.827 15.36 15.36 15.36s15.36-6.827 15.36-15.36zM629.76 253.44c0-8.533-6.827-15.36-15.36-15.36s-15.36 6.827-15.36 15.36c0 8.533 6.827 15.36 15.36 15.36s15.36-6.827 15.36-15.36zM614.4 378.027c8.533 0 15.36-6.827 15.36-15.36s-6.827-15.36-15.36-15.36c-8.533 0-15.36 6.827-15.36 15.36-1.707 8.533 6.827 15.36 15.36 15.36zM505.173 378.027c8.533 0 15.36-6.827 15.36-15.36s-6.827-15.36-15.36-15.36c-8.533 0-15.36 6.827-15.36 15.36-1.707 8.533 5.12 15.36 15.36 15.36zM175.787 347.307c-8.533 0-15.36 6.827-15.36 15.36s6.827 15.36 15.36 15.36c8.533 0 15.36-6.827 15.36-15.36s-6.827-15.36-15.36-15.36zM285.013 378.027c8.533 0 15.36-6.827 15.36-15.36s-6.827-15.36-15.36-15.36c-8.533 0-15.36 6.827-15.36 15.36s6.827 15.36 15.36 15.36zM175.787 111.787c-8.533 0-15.36 6.827-15.36 15.36s6.827 15.36 15.36 15.36c8.533 0 15.36-6.827 15.36-15.36s-6.827-15.36-15.36-15.36zM160.427 253.44c0 8.533 6.827 15.36 15.36 15.36s15.36-6.827 15.36-15.36c0-8.533-6.827-15.36-15.36-15.36-8.533-1.707-15.36 5.12-15.36 15.36zM817.493 253.44c0 8.533 6.827 15.36 15.36 15.36s15.36-6.827 15.36-15.36c0-8.533-6.827-15.36-15.36-15.36-8.533-1.707-15.36 6.827-15.36 15.36zM488.107 253.44c0 8.533 6.827 15.36 15.36 15.36s15.36-6.827 15.36-15.36c0-8.533-6.827-15.36-15.36-15.36-8.533-1.707-15.36 6.827-15.36 15.36zM285.013 111.787c-8.533 0-15.36 6.827-15.36 15.36s6.827 15.36 15.36 15.36c8.533 0 15.36-6.827 15.36-15.36s-6.827-15.36-15.36-15.36zM832.853 378.027c8.533 0 15.36-6.827 15.36-15.36s-6.827-15.36-15.36-15.36c-8.533 0-15.36 6.827-15.36 15.36s6.827 15.36 15.36 15.36zM614.4 111.787c-8.533 0-15.36 6.827-15.36 15.36s6.827 15.36 15.36 15.36c8.533 0 15.36-6.827 15.36-15.36s-6.827-15.36-15.36-15.36zM503.467 111.787c-8.533 0-15.36 6.827-15.36 15.36s6.827 15.36 15.36 15.36c8.533 0 15.36-6.827 15.36-15.36 1.707-8.533-5.12-15.36-15.36-15.36zM738.987 253.44c0-8.533-6.827-15.36-15.36-15.36s-15.36 6.827-15.36 15.36c0 8.533 6.827 15.36 15.36 15.36s15.36-6.827 15.36-15.36zM505.173 502.613c8.533 0 15.36-6.827 15.36-15.36s-6.827-15.36-15.36-15.36c-8.533 0-15.36 6.827-15.36 15.36-1.707 8.533 5.12 15.36 15.36 15.36zM378.88 253.44c0 8.533 6.827 15.36 15.36 15.36s15.36-6.827 15.36-15.36c0-8.533-6.827-15.36-15.36-15.36-8.533-1.707-15.36 5.12-15.36 15.36zM300.373 251.733c0-8.533-6.827-15.36-15.36-15.36s-15.36 6.827-15.36 15.36c0 8.533 6.827 15.36 15.36 15.36 8.533 1.707 15.36-5.12 15.36-15.36zM614.4 471.893c-8.533 0-15.36 6.827-15.36 15.36s6.827 15.36 15.36 15.36c8.533 0 15.36-6.827 15.36-15.36s-6.827-15.36-15.36-15.36zM394.24 111.787c-8.533 0-15.36 6.827-15.36 15.36s6.827 15.36 15.36 15.36c8.533 0 15.36-6.827 15.36-15.36s-6.827-15.36-15.36-15.36zM832.853 502.613c8.533 0 15.36-6.827 15.36-15.36s-6.827-15.36-15.36-15.36c-8.533 0-15.36 6.827-15.36 15.36s6.827 15.36 15.36 15.36zM394.24 378.027c8.533 0 15.36-6.827 15.36-15.36s-6.827-15.36-15.36-15.36c-8.533 0-15.36 6.827-15.36 15.36s6.827 15.36 15.36 15.36zM738.987 362.667c0-8.533-6.827-15.36-15.36-15.36s-15.36 6.827-15.36 15.36c0 8.533 6.827 15.36 15.36 15.36s15.36-6.827 15.36-15.36z" />
<glyph unicode="&#xe903;" glyph-name="tour-chat04" d="M588.8 896.853v-30.72h250.88v-69.973h-657.067v68.267h250.88v32.427h155.307zM617.813 925.867h-211.627v-32.427h-252.587v-128h716.8v128h-252.587v32.427zM793.6 695.467l-35.84-696.32h-491.52l-35.84 696.32h563.2zM544.427 133.973h126.293v443.733h-126.293v-443.733zM353.28 133.973h126.293v443.733h-126.293v-443.733zM824.32 726.187h-624.64l39.253-756.053h546.133l39.253 756.053zM573.44 164.693v384h68.267v-385.707h-68.267v1.707zM382.293 164.693v384h68.267v-385.707h-68.267v1.707z" />
<glyph unicode="&#xe904;" glyph-name="tour-chat05" d="M512 226.133c-10.24 0-17.067 6.827-17.067 17.067v409.6c0 10.24 6.827 17.067 17.067 17.067s17.067-6.827 17.067-17.067v-409.6c0-10.24-6.827-17.067-17.067-17.067zM887.467 226.133c-10.24 0-17.067 6.827-17.067 17.067v187.733h-716.8v-187.733c0-10.24-6.827-17.067-17.067-17.067s-17.067 6.827-17.067 17.067v204.8l17.067 17.067h750.933l17.067-17.067v-204.8c0-10.24-6.827-17.067-17.067-17.067zM256-12.8h-238.933l-17.067 17.067v238.933l17.067 17.067h238.933l17.067-17.067v-238.933l-17.067-17.067zM34.133 21.333h204.8v204.8h-204.8v-204.8zM1006.933-12.8h-238.933l-17.067 17.067v238.933l17.067 17.067h238.933l17.067-17.067v-238.933l-17.067-17.067zM785.067 21.333h204.8v204.8h-204.8v-204.8zM631.467-12.8h-238.933l-17.067 17.067v238.933l17.067 17.067h238.933l17.067-17.067v-238.933l-17.067-17.067zM409.6 21.333h204.8v204.8h-204.8v-204.8zM631.467 908.8h-238.933l-17.067-17.067v-238.933l17.067-17.067h238.933l17.067 17.067v238.933l-17.067 17.067zM614.4 669.867h-204.8v204.8h204.8v-204.8z" />
<glyph unicode="&#xe905;" glyph-name="tour-device01" d="M426.667 787.627v0c-10.24 6.827-18.773 11.947-32.427 11.947-20.48 0-39.253-15.36-39.253-34.133 0-17.067 11.947-22.187 32.427-32.427 88.747-76.8 143.36-182.613 143.36-298.667 0-114.347-52.907-218.453-138.24-295.253v0c-8.533-6.827-37.547-20.48-37.547-39.253s17.067-34.133 39.253-34.133c20.48 0 47.787 22.187 54.613 30.72v0 0c97.28 87.040 155.307 204.8 155.307 336.213 1.707 139.947-68.267 266.24-177.493 354.987v0zM191.147 657.92v0c-17.067 6.827-23.893 5.12-34.133 5.12-18.773-1.707-30.72-15.36-30.72-32.427s13.653-20.48 35.84-35.84c47.787-40.96 78.507-97.28 78.507-160.427 0-61.44-29.013-116.053-75.093-157.013-25.6-13.653-40.96-15.36-40.96-32.427 0-18.773 17.067-34.133 39.253-34.133 17.067 0 32.427 5.12 46.080 15.36v0c63.147 52.907 104.107 126.293 104.107 208.213 1.707 90.453-46.080 172.373-122.88 223.573v0zM718.507 893.44c-10.24 13.653-22.187 23.893-40.96 23.893-20.48 0-35.84-13.653-35.84-32.427 0-11.947 6.827-18.773 17.067-30.72v0c98.987-112.64 158.72-254.293 158.72-407.893 0-155.307-59.733-296.96-162.133-411.307-6.827-6.827-10.24-13.653-10.24-22.187 0-18.773 17.067-34.133 39.253-34.133 17.067 0 32.427 10.24 37.547 23.893 107.52 122.88 170.667 276.48 170.667 442.027 3.413 168.96-63.147 324.267-174.080 448.853v0z" />
<glyph unicode="&#xe906;" glyph-name="tour-device02" d="M805.547 405.333c-8.533 54.613-37.547 83.627-58.027 97.28s-42.667 18.773-59.733 20.48c-22.187 29.013-54.613 44.373-90.453 44.373-8.533 0-17.067 0-23.893-1.707-18.773 22.187-46.080 35.84-75.093 37.547 42.667 32.427 69.973 81.92 69.973 139.947 0 95.573-78.507 174.080-175.787 174.080s-179.2-78.507-179.2-174.080c0-61.44 32.427-116.053 81.92-146.773v-157.013c-25.6-13.653-42.667-34.133-51.2-61.44-11.947-42.667-1.707-95.573 30.72-165.547 22.187-46.080 47.787-85.333 59.733-104.107l5.12-73.387c1.707-32.427 30.72-58.027 63.147-58.027h261.12c32.427 0 58.027 23.893 63.147 54.613l10.24 76.8c63.147 97.28 85.333 196.267 68.267 296.96zM295.253 724.48v-78.507c-25.6 23.893-40.96 58.027-40.96 97.28 0 75.093 61.44 134.827 136.533 134.827s136.533-59.733 136.533-134.827c0-39.253-17.067-73.387-42.667-97.28v80.213c0 27.307-10.24 52.907-30.72 69.973-17.067 15.36-39.253 23.893-64.853 23.893s-51.2-10.24-68.267-27.307c-17.067-18.773-25.6-40.96-25.6-68.267zM701.44 128.853c-1.707-3.413-3.413-6.827-3.413-10.24l-10.24-80.213c-1.707-11.947-11.947-20.48-23.893-20.48l-261.12-1.707c0 0 0 0 0 0-11.947 0-22.187 10.24-23.893 22.187l-5.12 76.8c0 3.413-1.707 8.533-3.413 11.947-23.893 34.133-157.013 235.52-49.493 279.893 8.533 3.413 13.653 11.947 13.653 20.48 0 54.613 0 235.52 0 296.96 0 35.84 27.307 54.613 54.613 54.613s54.613-18.773 54.613-54.613v-139.947c0-13.653 10.24-22.187 23.893-22.187 1.707 0 1.707 0 3.413 0 5.12 0 10.24 1.707 15.36 1.707 20.48 0 42.667-6.827 59.733-30.72 5.12-6.827 11.947-8.533 18.773-8.533 1.707 0 3.413 0 6.827 0 6.827 1.707 15.36 3.413 25.6 3.413 20.48 0 44.373-6.827 63.147-35.84 3.413-5.12 10.24-8.533 17.067-8.533 23.893 0 78.507-10.24 90.453-87.040 10.24-68.267 3.413-162.133-66.56-267.947z" />
<glyph unicode="&#xe907;" glyph-name="tour-device03" d="M401.067 226.133c184.32 0 332.8 148.48 332.8 332.8s-148.48 332.8-332.8 332.8c-184.32 0-332.8-148.48-332.8-332.8s148.48-332.8 332.8-332.8zM401.067 784.213c124.587 0 225.28-100.693 225.28-225.28s-100.693-225.28-225.28-225.28-225.28 100.693-225.28 225.28c0 124.587 100.693 225.28 225.28 225.28zM861.867 4.267c25.6 0 47.787 10.24 66.56 27.307 17.067 17.067 27.307 40.96 27.307 66.56s-10.24 47.787-27.307 66.56l-186.027 184.32c-5.12 5.12-11.947 6.827-17.067 6.827-8.533 0-15.36-3.413-20.48-11.947-23.893-35.84-54.613-64.853-90.453-90.453-6.827-5.12-10.24-11.947-11.947-18.773 0-6.827 1.707-15.36 6.827-20.48l186.027-186.027c18.773-13.653 42.667-23.893 66.56-23.893z" />
<glyph unicode="&#xe908;" glyph-name="tour-flow01" d="M670.72 917.333c1.707 0 1.707-1.707 3.413-1.707 6.827-1.707 11.947-5.12 15.36-8.533 37.547-35.84 76.8-73.387 116.053-109.227 27.307-25.6 54.613-51.2 80.213-76.8 5.12-5.12 8.533-11.947 10.24-17.067 0-1.707 0-3.413 0-5.12 0-122.88 0-244.053 0-366.933 0-46.080 0-92.16 0-138.24 0-1.707 0-3.413 0-5.12-256 0-512 0-768 0 0 1.707 0 1.707 0 3.413s0 1.707 0 3.413c0 223.573 0 448.853 0 672.427 0 6.827 0 15.36 3.413 22.187 5.12 13.653 15.36 23.893 30.72 27.307 0 0 1.707 0 1.707 0 170.667 0 337.92 0 506.88 0zM657.067 884.907c-1.707 0-3.413 0-6.827 0-158.72 0-317.44 0-476.16 0-1.707 0-1.707 0-3.413 0-3.413 0-5.12-1.707-5.12-3.413-1.707-1.707-3.413-3.413-3.413-5.12 0-3.413 0-6.827 0-10.24 0-213.333 0-424.96 0-638.293 0-1.707 0-1.707 0-3.413s0-1.707 0-3.413c233.813 0 465.92 0 699.733 0 0 5.12 0 465.92 0 469.333-68.267 0-136.533 0-204.8 0 0 64.853 0 129.707 0 194.56zM691.2 852.48c0-42.667 0-85.333 0-129.707 5.12 0 133.12 0 136.533 0-46.080 44.373-90.453 87.040-136.533 129.707zM896 135.68c0-1.707 0-3.413 0-5.12 0-39.253 0-80.213 0-119.467 0-6.827-1.707-11.947-6.827-17.067-8.533-10.24-20.48-15.36-34.133-15.36 0 0-1.707 0-1.707 0-226.987 0-452.267 0-679.253 0-10.24 0-20.48 3.413-29.013 8.533-3.413 3.413-6.827 5.12-10.24 10.24s-5.12 8.533-5.12 13.653c0 40.96 0 80.213 0 121.173 0 1.707 0 1.707 0 3.413 254.293 0 510.293 0 766.293 0zM861.867 103.253c-233.813 0-465.92 0-699.733 0 0-1.707 0-3.413 0-5.12 0-22.187 0-42.667 0-64.853 0-5.12 0-11.947 0-17.067 0-1.707 0-3.413 3.413-5.12 1.707-1.707 5.12-1.707 8.533-1.707 226.987 0 452.267 0 679.253 0 1.707 0 3.413 0 3.413 0 5.12 1.707 6.827 1.707 6.827 6.827 0 27.307 0 54.613 0 80.213-1.707 3.413-1.707 5.12-1.707 6.827z" />
<glyph unicode="&#xe909;" glyph-name="tour-flow02" d="M517.12 649.387c-8.533 0-17.067-6.827-17.067-15.36s6.827-15.36 17.067-15.36c66.56 0 121.173-51.2 121.173-114.347v-11.947c0-8.533 6.827-15.36 17.067-15.36s17.067 6.827 17.067 15.36v11.947c-1.707 80.213-69.973 145.067-155.307 145.067zM653.653 444.587c-8.533 0-17.067-6.827-17.067-15.36v-136.533c0-8.533 6.827-15.36 17.067-15.36s17.067 6.827 17.067 15.36v136.533c0 6.827-6.827 15.36-17.067 15.36zM803.84 217.6h-78.507v286.72c0 109.227-93.867 197.973-208.213 197.973s-208.213-88.747-208.213-197.973v-285.013h-78.507c-8.533 0-17.067-6.827-17.067-15.36v-208.213c0-8.533 6.827-15.36 17.067-15.36h573.44c8.533 0 17.067 6.827 17.067 15.36v206.507c-1.707 8.533-8.533 15.36-17.067 15.36zM341.333 504.32c0 92.16 78.507 167.253 175.787 167.253s175.787-75.093 175.787-167.253v-285.013h-351.573v285.013zM786.773 186.88v-39.253h-539.307v39.253h539.307zM247.467 9.387v107.52h541.013v-107.52h-541.013zM512 763.733c8.533 0 17.067 6.827 17.067 15.36v122.88c0 8.533-6.827 15.36-17.067 15.36s-17.067-6.827-17.067-15.36v-122.88c0-8.533 8.533-15.36 17.067-15.36zM302.080 690.347c3.413-3.413 6.827-5.12 11.947-5.12 3.413 0 8.533 1.707 11.947 5.12 6.827 6.827 6.827 15.36 0 22.187l-90.453 87.040c-6.827 6.827-17.067 6.827-22.187 0-6.827-6.827-6.827-15.36 0-22.187l88.747-87.040zM245.76 512.853c0 8.533-6.827 15.36-17.067 15.36h-126.293c-8.533 0-17.067-6.827-17.067-15.36s6.827-15.36 17.067-15.36h128c8.533 0 15.36 6.827 15.36 15.36zM711.68 685.227c3.413 0 8.533 1.707 11.947 5.12l90.453 87.040c6.827 6.827 6.827 15.36 0 22.187s-17.067 6.827-22.187 0l-92.16-87.040c-6.827-6.827-6.827-15.36 0-22.187 3.413-3.413 6.827-5.12 11.947-5.12zM921.6 528.213h-128c-8.533 0-17.067-6.827-17.067-15.36s6.827-15.36 17.067-15.36h128c8.533 0 17.067 6.827 17.067 15.36s-6.827 15.36-17.067 15.36z" />
<glyph unicode="&#xe90a;" glyph-name="tour-flow03" d="M42.667 273.92c0 172.373 0 344.747 0 517.12 0 1.707 1.707 3.413 1.707 3.413 0 1.707 0 3.413 1.707 5.12 5.12 37.547 37.547 68.267 75.093 73.387 3.413 0 5.12 1.707 8.533 1.707 254.293 0 510.293 0 764.587 0 1.707 0 1.707 0 3.413 0 3.413 0 8.533-1.707 11.947-1.707 42.667-10.24 73.387-51.2 71.68-90.453-1.707-47.787 0-97.28 0-145.067 0-119.467 0-237.227 0-356.693 0-5.12 0-11.947-1.707-17.067-8.533-40.96-47.787-75.093-93.867-75.093-146.773 0-293.547 0-440.32 0-3.413 0-5.12-1.707-8.533-3.413-49.493-52.907-97.28-105.813-146.773-157.013-1.707-1.707-1.707-1.707-3.413-3.413-5.12-3.413-10.24-5.12-15.36-3.413s-8.533 5.12-10.24 11.947c0 1.707 0 3.413 0 5.12 0 34.133 0 68.267 0 100.693 0 15.36 0 29.013 0 44.373 0 1.707 0 3.413 0 5.12-1.707 0-3.413 0-5.12 0-39.253 0-80.213 0-119.467 0-5.12 0-8.533 0-13.653 1.707-40.96 5.12-73.387 39.253-80.213 78.507 1.707 1.707 0 3.413 0 5.12zM496.64 401.92c87.040 0 174.080 0 262.827 0 1.707 0 3.413 0 3.413 0 8.533 0 13.653 6.827 15.36 13.653 0 6.827-5.12 15.36-13.653 15.36-1.707 0-3.413 0-5.12 0-175.787 0-349.867 0-525.653 0-1.707 0-1.707 0-3.413 0-8.533 0-15.36-6.827-15.36-15.36s5.12-15.36 13.653-15.36c1.707 0 3.413 0 5.12 0 87.040 1.707 175.787 1.707 262.827 1.707zM496.64 524.8c87.040 0 175.787 0 262.827 0 1.707 0 3.413 0 5.12 0 8.533 0 15.36 6.827 15.36 15.36s-6.827 15.36-13.653 15.36c-1.707 0-3.413 0-5.12 0-174.080 0-349.867 0-523.947 0-1.707 0-3.413 0-5.12 0-8.533 0-13.653-6.827-13.653-15.36s6.827-13.653 15.36-15.36c1.707 0 3.413 0 5.12 0 83.627 0 170.667 0 257.707 0zM348.16 676.693c-37.547 0-75.093 0-114.347 0-1.707 0-1.707 0-3.413 0-8.533 0-15.36-6.827-15.36-13.653 0-8.533 5.12-15.36 13.653-15.36 1.707 0 3.413 0 5.12 0 75.093 0 151.893 0 226.987 0 1.707 0 3.413 0 5.12 0 6.827 1.707 13.653 6.827 13.653 13.653s-3.413 13.653-10.24 15.36c-1.707 0-5.12 0-6.827 0-37.547 0-75.093 0-114.347 0z" />
<glyph unicode="&#xe90b;" glyph-name="tour-schedule01" d="M35.84 31.573c0 208.213 0 418.133 0 626.347 0 1.707 1.707 1.707 1.707 3.413 3.413 5.12 8.533 8.533 15.36 8.533 1.707 0 3.413 0 3.413 0 281.6 0 564.907 0 846.507 0 1.707 0 3.413 0 5.12 0 6.827 0 13.653-5.12 15.36-11.947 0-1.707 0-3.413 0-5.12 0-46.080 0-93.867 0-139.947 0-20.48 0-39.253 0-59.733 0-1.707 0-3.413 0-5.12-39.253 0-78.507 0-119.467 0 0 5.12 0 10.24 0 13.653 0 5.12 0 10.24 0 13.653 0 5.12 0 10.24 0 13.653 0 5.12 0 10.24 0 13.653 0 5.12 0 8.533 0 13.653s0 10.24 0 13.653c0 5.12 0 10.24 0 13.653 0 5.12 0 10.24 0 13.653 0 5.12 0 8.533 0 13.653-46.080 0-90.453 0-136.533 0 0-42.667 0-83.627 0-126.293-11.947 0-22.187 0-34.133 0 0 42.667 0 85.333 0 126.293-46.080 0-90.453 0-136.533 0-1.707-5.12 0-124.587 0-126.293 13.653 0 25.6 0 39.253 0s25.6 0 39.253 0c13.653 0 25.6 0 39.253 0 0-1.707 0-3.413 0-5.12 0-37.547 0-75.093 0-110.933 0-10.24 0-22.187 3.413-32.427 6.827-37.547 22.187-71.68 49.493-100.693 1.707-1.707 3.413-3.413 3.413-5.12-1.707-1.707-1.707-1.707-3.413-3.413-34.133-37.547-51.2-81.92-52.907-129.707 0-11.947 0-23.893 0-35.84 0-1.707 0-3.413 0-5.12-1.707 0-3.413 0-6.827 0-184.32 0-368.64 0-552.96 0-1.707 0-1.707 0-3.413 0-6.827 0-13.653 3.413-15.36 10.24 1.707 3.413 0 3.413 0 5.12zM462.507 289.28c1.707 5.12 0 124.587 0 126.293-6.827 0-133.12 0-134.827 0 0-42.667 0-83.627 0-126.293 44.373 0 88.747 0 134.827 0zM325.973 130.56c46.080 0 90.453 0 136.533 0 1.707 3.413 1.707 124.587 0 126.293-5.12 0-133.12 0-136.533 0 0-42.667 0-83.627 0-126.293zM325.973 574.293c0-42.667 0-85.333 0-126.293 5.12 0 133.12 0 136.533 0 1.707 5.12 0 124.587 0 126.293-46.080 0-90.453 0-136.533 0zM155.307 415.573c-1.707-5.12 0-124.587 0-126.293 44.373 0 90.453 0 134.827 0 0 42.667 0 85.333 0 126.293-44.373 0-88.747 0-134.827 0zM291.84 130.56c0 42.667 0 85.333 0 126.293-6.827 0-133.12 0-136.533 0 0-5.12 0-122.88 0-126.293 46.080 0 90.453 0 136.533 0zM155.307 448c46.080 0 90.453 0 136.533 0 0 42.667 0 85.333 0 126.293-6.827 0-133.12 0-136.533 0 0-40.96 0-83.627 0-126.293zM807.253 925.867c0 0 1.707 0 1.707-1.707 8.533-3.413 11.947-8.533 11.947-15.36 0-13.653 0-29.013 0-42.667 0-1.707 0-3.413 0-5.12 1.707 0 3.413 0 5.12 0 25.6 0 51.2 0 76.8 0 1.707 0 3.413 0 5.12 0 8.533-1.707 13.653-6.827 15.36-13.653 0-1.707 0-1.707 0-3.413 0-46.080 0-90.453 0-136.533 0-1.707 0-3.413 0-5.12-1.707 0-1.707 0-3.413 0s-3.413 0-3.413 0c-291.84 0-581.973 0-873.813 0-1.707 0-3.413 0-6.827 0 0 49.493 0 97.28 0 146.773 0 1.707 1.707 1.707 1.707 3.413 3.413 5.12 8.533 8.533 13.653 8.533 1.707 0 3.413 0 5.12 0 25.6 0 51.2 0 76.8 0 1.707 0 3.413 0 5.12 0 0 1.707 0 3.413 0 5.12 0 13.653 0 29.013 0 42.667 0 6.827 3.413 11.947 10.24 15.36 1.707 0 1.707 0 3.413 1.707 40.96 0 83.627 0 124.587 0 0 0 0 0 1.707 0 10.24-3.413 13.653-8.533 13.653-17.067 0-13.653 0-27.307 0-40.96 0-1.707 0-3.413 0-3.413 5.12-1.707 372.053 0 375.467 0 0 1.707 0 3.413 0 3.413 0 13.653 0 25.6 0 39.253 0 1.707 0 3.413 0 5.12 0 6.827 3.413 10.24 10.24 13.653 1.707 0 1.707 1.707 3.413 1.707 42.667-1.707 83.627-1.707 126.293-1.707zM174.080 797.867c27.307 0 56.32 0 83.627 0 1.707 3.413 1.707 92.16 0 95.573-27.307 0-56.32 0-83.627 0-1.707-3.413-1.707-92.16 0-95.573zM786.773 893.44c-29.013 0-56.32 0-85.333 0 0-3.413 0-92.16 0-95.573 5.12 0 81.92 0 85.333 0 0 32.427 0 63.147 0 95.573zM940.373 367.787c0-1.707 0-3.413 0-5.12 0-10.24 0-20.48 0-30.72 0-58.027-27.307-104.107-78.507-136.533-1.707 0-1.707-1.707-3.413-3.413 1.707-1.707 1.707-1.707 3.413-1.707 32.427-20.48 56.32-47.787 68.267-81.92 6.827-17.067 10.24-34.133 10.24-51.2 0-11.947 0-22.187 0-34.133 0-1.707 0-3.413 0-5.12 1.707 0 3.413 0 5.12 0 5.12 0 8.533 0 13.653 0 8.533 0 15.36-6.827 17.067-15.36 0-10.24-8.533-17.067-17.067-17.067-1.707 0-1.707 0-3.413 0-98.987 0-199.68 0-298.667 0-1.707 0-3.413 0-5.12 0-8.533 0-15.36 8.533-15.36 17.067s6.827 15.36 17.067 15.36c5.12 0 11.947 0 17.067 0 0 1.707 0 3.413 0 5.12 0 11.947 0 25.6 0 37.547 1.707 40.96 17.067 76.8 47.787 107.52 8.533 8.533 18.773 17.067 30.72 23.893 1.707 0 1.707 1.707 3.413 1.707-1.707 1.707-3.413 1.707-3.413 1.707-37.547 23.893-63.147 58.027-73.387 100.693-3.413 11.947-3.413 23.893-3.413 34.133s0 22.187 0 32.427c0 1.707 0 3.413 0 5.12-1.707 0-3.413 0-3.413 0-5.12 0-10.24 0-13.653 0-11.947 0-18.773 10.24-15.36 20.48 1.707 6.827 8.533 10.24 15.36 10.24 1.707 0 1.707 0 3.413 0 100.693 0 201.387 0 302.080 0 1.707 0 5.12 0 6.827 0 6.827-1.707 11.947-6.827 11.947-15.36 0-10.24-8.533-17.067-17.067-17.067-3.413 0-8.533 0-11.947 0-6.827 1.707-8.533 1.707-10.24 1.707zM701.44 367.787c0-1.707 0-1.707 0-3.413 0-11.947 0-22.187 0-34.133 0-8.533 0-17.067 3.413-25.6 10.24-44.373 39.253-76.8 83.627-95.573 1.707 0 3.413-1.707 5.12-1.707 6.827 0 13.653 0 20.48 0 1.707 0 5.12 0 6.827 1.707 18.773 8.533 35.84 18.773 49.493 32.427 23.893 23.893 35.84 52.907 35.84 85.333 0 11.947 0 23.893 0 35.84 0 1.707 0 1.707 0 3.413-68.267 1.707-136.533 1.707-204.8 1.707zM701.44 17.92c68.267 0 136.533 0 204.8 0 0 1.707 0 1.707 0 3.413 0 11.947 0 22.187 0 34.133 0 8.533 0 18.773-3.413 27.307-10.24 44.373-39.253 75.093-83.627 93.867-1.707 0-3.413 1.707-5.12 1.707-6.827 0-13.653 0-20.48 0-1.707 0-5.12 0-6.827-1.707-6.827-3.413-15.36-6.827-22.187-11.947-40.96-25.6-63.147-61.44-63.147-107.52 0-11.947 0-23.893 0-35.84 0 0 0-1.707 0-3.413z" />
<glyph unicode="&#xe90c;" glyph-name="tour-schedule02" d="M677.547 248.32c-73.387 0-133.12-59.733-133.12-134.827s59.733-134.827 133.12-134.827 133.12 59.733 133.12 134.827-59.733 134.827-133.12 134.827zM677.547 16.213c-52.907 0-95.573 42.667-95.573 97.28 0 52.907 42.667 97.28 95.573 97.28s95.573-42.667 95.573-97.28c0-52.907-42.667-97.28-95.573-97.28zM455.68 569.173c5.12 0 10.24 1.707 13.653 5.12l112.64 114.347c23.893-25.6 58.027-40.96 95.573-40.96 73.387 0 133.12 59.733 133.12 134.827s-59.733 134.827-133.12 134.827-133.12-59.733-133.12-134.827c0-22.187 5.12-44.373 15.36-63.147l-117.76-117.76c-6.827-6.827-6.827-18.773 0-27.307 3.413-3.413 8.533-5.12 13.653-5.12zM677.547 879.787c52.907 0 95.573-42.667 95.573-97.28s-42.667-97.28-95.573-97.28c-52.907 0-95.573 42.667-95.573 97.28s42.667 97.28 95.573 97.28zM544.427 232.96l-110.933 112.64c29.013 25.6 46.080 61.44 46.080 102.4 0 75.093-59.733 134.827-133.12 134.827s-133.12-59.733-133.12-134.827 59.733-134.827 133.12-134.827c18.773 0 37.547 3.413 54.613 11.947l117.76-119.467c3.413-3.413 8.533-5.12 13.653-5.12s10.24 1.707 13.653 5.12c6.827 8.533 6.827 20.48-1.707 27.307zM250.88 448c0 52.907 42.667 97.28 95.573 97.28s95.573-42.667 95.573-97.28-42.667-97.28-95.573-97.28-95.573 44.373-95.573 97.28z" />
<glyph unicode="&#xe90d;" glyph-name="tour-schedule03" d="M962.56 557.227c-13.653 11.947-29.013 18.773-47.787 18.773v0 192.853c0 17.067-6.827 32.427-20.48 44.373s-29.013 18.773-47.787 18.773c-160.427-128-317.44-191.147-469.333-191.147h-250.88c-23.893 0-42.667-8.533-59.733-23.893s-23.893-34.133-23.893-56.32v-95.573c0-22.187 8.533-40.96 23.893-56.32 17.067-15.36 35.84-23.893 59.733-23.893h63.147c-5.12-18.773-10.24-35.84-11.947-54.613s-1.707-35.84-1.707-49.493c0-13.653 3.413-30.72 8.533-51.2s8.533-34.133 11.947-44.373c3.413-10.24 8.533-25.6 17.067-47.787s13.653-35.84 15.36-44.373c15.36-13.653 39.253-23.893 69.973-27.307 30.72-5.12 59.733-3.413 88.747 5.12s47.787 22.187 58.027 40.96c-13.653 10.24-23.893 18.773-32.427 25.6s-17.067 15.36-25.6 25.6c-8.533 10.24-13.653 18.773-17.067 27.307s-3.413 18.773-3.413 29.013c1.707 10.24 5.12 22.187 11.947 32.427-13.653 13.653-20.48 29.013-20.48 46.080s5.12 34.133 17.067 49.493c11.947 15.36 27.307 27.307 47.787 32.427 138.24-10.24 279.893-75.093 424.96-189.44 18.773 0 34.133 6.827 47.787 18.773s20.48 27.307 20.48 44.373v194.56c18.773 0 34.133 6.827 47.787 18.773s20.48 27.307 20.48 44.373c-3.413 18.773-10.24 34.133-22.187 46.080zM846.507 273.92c-136.533 98.987-271.36 157.013-402.773 170.667v134.827c131.413 13.653 264.533 69.973 402.773 170.667v-476.16z" />
<glyph unicode="&#xe90e;" glyph-name="tour-schedule04" d="M802.133 567.467h-61.44v143.36c0 114.347-102.4 206.507-226.987 206.507-126.293 0-226.987-92.16-226.987-206.507v-143.36h-64.853c-18.773 0-34.133-13.653-34.133-30.72v-525.653c0-17.067 15.36-30.72 34.133-30.72h580.267c18.773 0 34.133 13.653 34.133 30.72v523.947c0 18.773-15.36 32.427-34.133 32.427zM353.28 710.827c0 78.507 71.68 143.36 158.72 143.36s158.72-64.853 158.72-143.36v-143.36h-317.44v143.36zM766.293 41.813h-508.587v462.507h508.587v-462.507z" />
<glyph unicode="&#xe90f;" d="M938.667 441.173c0-235.641-192.553-426.667-430.080-426.667s-430.080 191.025-430.080 426.667c0 235.641 192.553 426.667 430.080 426.667s430.080-191.025 430.080-426.667z" />
<glyph unicode="&#xe910;" d="M182.613 239.787c-58.027 0-102.4 17.067-128 51.2-13.653 18.773-20.48 35.84-25.6 69.973l-1.707 8.533 61.44 6.827v-8.533c1.707-22.187 5.12-32.427 13.653-44.373 15.36-20.48 42.667-30.72 76.8-30.72 54.613 0 87.040 23.893 87.040 64.853 0 22.187-8.533 37.547-23.893 46.080s-20.48 10.24-80.213 23.893c-30.72 6.827-51.2 13.653-69.973 23.893-34.133 18.773-51.2 47.787-51.2 85.333 0 66.56 52.907 110.933 136.533 110.933 52.907 0 92.16-17.067 117.76-49.493 11.947-15.36 17.067-29.013 23.893-56.32l1.707-8.533-58.027-8.533-1.707 6.827c-3.413 18.773-6.827 27.307-15.36 37.547-13.653 17.067-37.547 25.6-68.267 25.6-47.787 0-78.507-23.893-78.507-59.733 0-22.187 11.947-37.547 37.547-47.787 11.947-5.12 11.947-5.12 63.147-15.36l6.827-1.707c83.627-17.067 117.76-51.2 117.76-112.64 1.707-75.093-51.2-117.76-141.653-117.76z" />
<glyph unicode="&#xe911;" d="M179.2 637.44c49.493 0 88.747-15.36 110.933-46.080 11.947-15.36 17.067-27.307 22.187-52.907l-42.667-5.12c-3.413 20.48-8.533 29.013-17.067 40.96-15.36 18.773-40.96 29.013-73.387 29.013-51.2 0-87.040-27.307-87.040-66.56 0-25.6 13.653-44.373 42.667-56.32 13.653-5.12 13.653-5.12 71.68-17.067 80.213-17.067 112.64-47.787 112.64-104.107 0-69.973-47.787-109.227-134.827-109.227-56.32 0-97.28 17.067-121.173 47.787-13.653 17.067-18.773 32.427-23.893 64.853l42.667 5.12c1.707-23.893 5.12-35.84 15.36-49.493 17.067-22.187 46.080-34.133 83.627-34.133 59.733 0 95.573 27.307 95.573 73.387 0 23.893-10.24 42.667-29.013 52.907-17.067 10.24-22.187 10.24-81.92 23.893-30.72 6.827-51.2 13.653-68.267 22.187-30.72 17.067-46.080 42.667-46.080 76.8 0 63.147 49.493 104.107 128 104.107zM179.2 652.8c-87.040 0-145.067-47.787-145.067-119.467 0-40.96 18.773-73.387 54.613-92.16 18.773-10.24 40.96-18.773 73.387-23.893 59.733-13.653 63.147-13.653 76.8-22.187 13.653-6.827 20.48-20.48 20.48-39.253 0-51.2-54.613-58.027-78.507-58.027-30.72 0-56.32 10.24-69.973 27.307-6.827 10.24-10.24 17.067-11.947 39.253l-1.707 17.067-17.067-1.707-42.667-5.12-17.067-1.707 3.413-17.067c5.12-35.84 11.947-52.907 27.307-73.387 25.6-35.84 73.387-52.907 133.12-52.907 93.867 0 151.893 47.787 151.893 126.293 0 66.56-37.547 102.4-124.587 121.173l-6.827 1.707c-51.2 10.24-51.2 10.24-61.44 15.36-29.013 11.947-32.427 27.307-32.427 40.96 0 30.72 29.013 51.2 71.68 51.2 27.307 0 47.787-8.533 61.44-22.187 6.827-8.533 10.24-15.36 13.653-34.133l3.413-15.36 15.36 1.707 42.667 5.12 17.067 1.707-3.413 17.067c-6.827 27.307-11.947 42.667-25.6 59.733-30.72 35.84-73.387 52.907-128 52.907v0z" />
<glyph unicode="&#xe912;" d="M517.12 239.787c-58.027 0-102.4 17.067-128 51.2-13.653 18.773-20.48 35.84-25.6 69.973l-1.707 8.533 61.44 6.827v-8.533c1.707-22.187 5.12-32.427 13.653-44.373 15.36-20.48 42.667-30.72 76.8-30.72 54.613 0 87.040 23.893 87.040 64.853 0 22.187-8.533 37.547-23.893 46.080s-20.48 10.24-80.213 23.893c-30.72 6.827-51.2 13.653-69.973 23.893-34.133 18.773-51.2 47.787-51.2 85.333 0 66.56 52.907 110.933 136.533 110.933 52.907 0 92.16-17.067 117.76-49.493 11.947-15.36 17.067-29.013 23.893-56.32l1.707-8.533-58.027-10.24-1.707 6.827c-3.413 18.773-6.827 27.307-15.36 37.547-13.653 17.067-37.547 25.6-68.267 25.6-47.787 0-78.507-23.893-78.507-59.733 0-22.187 11.947-37.547 37.547-47.787 11.947-5.12 11.947-5.12 63.147-15.36l6.827-1.707c83.627-17.067 117.76-51.2 117.76-112.64 1.707-73.387-51.2-116.053-141.653-116.053z" />
<glyph unicode="&#xe913;" d="M513.707 637.44c49.493 0 88.747-15.36 110.933-46.080 11.947-15.36 17.067-27.307 22.187-52.907l-42.667-5.12c-3.413 20.48-8.533 29.013-17.067 40.96-15.36 18.773-40.96 29.013-73.387 29.013-51.2 0-87.040-27.307-87.040-66.56 0-25.6 13.653-44.373 42.667-56.32 13.653-5.12 13.653-5.12 71.68-17.067 80.213-17.067 112.64-47.787 112.64-104.107 0-69.973-47.787-109.227-134.827-109.227-56.32 0-97.28 17.067-121.173 47.787-13.653 17.067-18.773 32.427-23.893 64.853l42.667 5.12c1.707-23.893 5.12-35.84 15.36-49.493 17.067-22.187 46.080-34.133 83.627-34.133 59.733 0 95.573 27.307 95.573 73.387 0 23.893-10.24 42.667-29.013 52.907-17.067 10.24-22.187 10.24-81.92 23.893-30.72 6.827-51.2 13.653-68.267 22.187-30.72 17.067-46.080 44.373-46.080 78.507 0 61.44 49.493 102.4 128 102.4zM513.707 652.8c-87.040 0-145.067-47.787-145.067-119.467 0-40.96 18.773-73.387 54.613-92.16 18.773-10.24 40.96-18.773 73.387-23.893 59.733-13.653 63.147-13.653 76.8-22.187 13.653-6.827 20.48-20.48 20.48-39.253 0-51.2-54.613-58.027-78.507-58.027-30.72 0-56.32 10.24-69.973 27.307-6.827 10.24-10.24 17.067-11.947 39.253l-1.707 17.067-17.067-1.707-42.667-5.12-17.067-1.707 3.413-17.067c5.12-35.84 11.947-52.907 27.307-73.387 25.6-35.84 73.387-52.907 133.12-52.907 93.867 0 151.893 47.787 151.893 126.293 0 66.56-37.547 102.4-124.587 121.173l-6.827 1.707c-51.2 10.24-51.2 10.24-61.44 15.36-29.013 11.947-32.427 27.307-32.427 40.96 0 30.72 29.013 51.2 71.68 51.2 27.307 0 47.787-8.533 61.44-22.187 6.827-8.533 10.24-15.36 13.653-34.133l3.413-15.36 15.36 1.707 42.667 5.12 17.067 1.707-3.413 17.067c-6.827 27.307-11.947 42.667-25.6 59.733-30.72 35.84-73.387 52.907-128 52.907v0z" />
<glyph unicode="&#xe914;" d="M976.213 241.493c-17.067 1.707-30.72 3.413-56.32 3.413h-146.773c-23.893 0-37.547 0-54.613-1.707h-10.24l1.707 10.24c3.413 18.773 3.413 32.427 3.413 58.027v261.12c0 25.6-1.707 40.96-3.413 56.32l-1.707 10.24h66.56l-1.707-10.24c-3.413-18.773-3.413-30.72-3.413-56.32v-274.773h148.48c25.6 0 39.253 1.707 56.32 3.413l8.533 1.707v-61.44h-6.827z" />
<glyph unicode="&#xe915;" d="M766.293 630.613c-3.413-18.773-3.413-30.72-3.413-58.027v-283.307h157.013c25.6 0 39.253 1.707 58.027 3.413v-42.667c-15.36 1.707-30.72 3.413-58.027 3.413h-146.773c-22.187 0-37.547 0-54.613-1.707 3.413 18.773 3.413 34.133 3.413 59.733v261.12c0 25.6-1.707 40.96-3.413 58.027h47.787zM785.067 647.68h-85.333l3.413-18.773c3.413-15.36 3.413-30.72 3.413-56.32v-261.12c0-23.893-1.707-39.253-3.413-56.32l-3.413-20.48 20.48 1.707c17.067 1.707 30.72 1.707 52.907 1.707h146.773c25.6 0 39.253 0 54.613-3.413l18.773-3.413v80.213l-18.773-1.707c-17.067-1.707-30.72-3.413-56.32-3.413h-141.653v266.24c0 25.6 0 37.547 3.413 56.32l5.12 18.773z" />
<glyph unicode="&#xe916;" glyph-name="tour-secutiry02" d="M810.667-21.333c-6.827 0-15.36 3.413-20.48 8.533l-6.827 6.827-66.56-1.707c-25.6 0-46.080 18.773-46.080 44.373l-1.707 35.84-34.133-1.707c0 0-1.707 0-1.707 0-23.893 0-44.373 18.773-44.373 44.373l-1.707 35.84-34.133-1.707c0 0-1.707 0-1.707 0-23.893 0-44.373 18.773-44.373 44.373l-1.707 71.68c-6.827 6.827-17.067 17.067-29.013 27.307-11.947-6.827-23.893-10.24-37.547-10.24-20.48 0-39.253 8.533-52.907 22.187 0 0-1.707 1.707-1.707 1.707-1.707 1.707-3.413 3.413-5.12 5.12-11.947-1.707-23.893-1.707-34.133-1.707-80.213 0-157.013 32.427-213.333 88.747-117.76 117.76-117.76 310.613 0 430.080 56.32 58.027 133.12 88.747 213.333 88.747s157.013-32.427 213.333-88.747c69.973-69.973 100.693-168.96 83.627-264.533 8.533-11.947 11.947-25.6 11.947-40.96 0-11.947-1.707-23.893-6.827-35.84l322.56-324.267c5.12-5.12 8.533-11.947 8.533-20.48l1.707-81.92c1.707-42.667-32.427-78.507-75.093-80.213l-93.867-1.707c1.707 0 0 0 0 0zM795.307 53.76c6.827 0 15.36-3.413 20.48-8.533l6.827-6.827 81.92 1.707c10.24 0 17.067 8.533 17.067 20.48l-1.707 69.973-325.973 327.68c-5.12 5.12-6.827 10.24-8.533 17.067l-1.707 6.827c-1.707 8.533 1.707 17.067 6.827 23.893 3.413 3.413 5.12 8.533 5.12 13.653s-1.707 10.24-5.12 13.653c-6.827 6.827-10.24 17.067-8.533 27.307 17.067 81.92-6.827 165.547-66.56 225.28-44.373 47.787-105.813 73.387-170.667 73.387s-126.293-25.6-172.373-71.68c-95.573-95.573-95.573-250.88 0-346.453 46.080-46.080 107.52-71.68 172.373-71.68 15.36 0 30.72 1.707 46.080 5.12 11.947 1.707 25.6-3.413 30.72-15.36 1.707-3.413 1.707-11.947 15.36-13.653 5.12 0 10.24 0 13.653 3.413l3.413 5.12c5.12 5.12 11.947 10.24 20.48 10.24s15.36-1.707 20.48-6.827c0 0 15.36-13.653 29.013-25.6 30.72-29.013 37.547-35.84 37.547-49.493l1.707-68.267 49.493 1.707c8.533 0 15.36-3.413 20.48-8.533s8.533-11.947 8.533-20.48l1.707-51.2 49.493 1.707c8.533 0 15.36-3.413 20.48-8.533s8.533-11.947 8.533-20.48l1.707-51.2 71.68-3.413c-1.707 0-1.707 0 0 0zM291.84 564.053c-27.307 0-52.907 10.24-73.387 30.72-39.253 40.96-39.253 105.813 0 145.067 18.773 18.773 46.080 30.72 73.387 30.72s52.907-10.24 73.387-30.72c39.253-40.96 39.253-105.813 0-145.067-20.48-20.48-46.080-30.72-73.387-30.72zM291.84 710.827c-11.947 0-22.187-5.12-30.72-13.653-17.067-17.067-17.067-46.080 0-63.147 8.533-8.533 18.773-13.653 30.72-13.653s22.187 5.12 30.72 13.653c17.067 17.067 17.067 46.080 0 63.147-8.533 10.24-18.773 13.653-30.72 13.653zM839.68 87.893c-6.827 0-15.36 3.413-20.48 8.533l-261.12 261.12c-11.947 11.947-11.947 30.72 0 40.96 11.947 11.947 30.72 11.947 40.96 0l259.413-261.12c11.947-11.947 11.947-30.72 0-40.96-3.413-6.827-11.947-8.533-18.773-8.533z" />
<glyph unicode="&#xe917;" glyph-name="tour-secutiry03" d="M981.333 401.92c0 0 0 0 0 0 0 1.707 0 3.413 0 3.413s0 0 0 1.707 0 1.707-1.707 3.413c0 0 0 0 0 1.707-1.707 1.707-1.707 5.12-3.413 6.827v0c0 1.707-1.707 1.707-1.707 1.707v0c-1.707 1.707-1.707 1.707-3.413 3.413v0c-1.707 1.707-1.707 1.707-3.413 1.707v0c0 0 0 0 0 0s-1.707 0-1.707 1.707l-191.147 95.573v230.4c0 1.707 0 1.707 0 3.413 0 0 0 0 0 0 0 1.707 0 3.413 0 3.413s0 0 0 1.707 0 1.707-1.707 3.413c0 0 0 0 0 1.707s-1.707 1.707-1.707 3.413v0c0 1.707-1.707 1.707-1.707 3.413v0c0 1.707-1.707 1.707-1.707 1.707v0c0 0-1.707 1.707-1.707 1.707v0c-1.707 0-1.707 1.707-3.413 1.707v0 0c0 0-1.707 1.707-1.707 1.707l-228.693 107.52c-8.533 5.12-20.48 5.12-29.013 0l-221.867-109.227c0 0-1.707 0-1.707-1.707v0 0c-1.707 0-1.707-1.707-3.413-1.707 0 0 0 0 0 0-1.707 0-1.707-1.707-1.707-1.707v0c0 0-1.707-1.707-1.707-1.707v0c0-1.707-1.707-1.707-1.707-3.413v0c0-1.707-1.707-1.707-1.707-3.413 0 0 0 0 0-1.707s0-1.707-1.707-3.413c0 0 0 0 0-1.707 0-3.413-1.707-5.12-1.707-6.827 0 0 0 0 0 0v-225.28l-204.8-102.4c0 0-1.707 0-1.707-1.707 0 0 0 0 0 0v0c-1.707 0-1.707-1.707-3.413-1.707v0c-1.707 0-1.707-1.707-1.707-1.707v0c0 0-1.707-1.707-1.707-1.707v0c0-1.707-1.707-1.707-1.707-3.413v0c0-1.707-1.707-1.707-1.707-3.413 0 0 0 0 0-1.707s0-1.707-1.707-3.413c0 0 0 0 0-1.707s0-1.707 0-3.413v0c0-1.707 0-3.413 0-3.413s0 0 0 0v-240.64c0-11.947 6.827-22.187 17.067-29.013l216.747-116.053c5.12-3.413 11.947-6.827 18.773-6.827 0 0 0 0 0 0v0c6.827 0 11.947 1.707 17.067 5.12 0 0 1.707 1.707 1.707 1.707l201.387 107.52 192.853-109.227c5.12-3.413 10.24-5.12 17.067-5.12 3.413 0 5.12 0 8.533 1.707 3.413 0 5.12-1.707 8.533-1.707 5.12 0 10.24 1.707 15.36 3.413l203.093 104.107c10.24 5.12 17.067 17.067 17.067 29.013v256c0 0 0 0 0 0-1.707 3.413-1.707 5.12-1.707 5.12zM727.040 325.12l-138.24 71.68 141.653 69.973c3.413 0 5.12-1.707 8.533-1.707 0 0 1.707 0 1.707 0l133.12-66.56-146.773-73.387zM706.56 528.213l-153.6-76.8v168.96l153.6 78.507v-170.667zM484.693 448l-153.6 76.8v172.373l153.6-75.093v-174.080zM298.667 468.48l143.36-71.68-141.653-73.387-148.48 71.68 146.773 73.387zM331.093 265.387l153.6 80.213v-170.667l-153.6-81.92v172.373zM518.827 823.467l146.773-71.68-145.067-73.387-148.48 71.68 146.773 73.387zM110.933 342.187l153.6-75.093v-175.787l-153.6 81.92v168.96zM694.613 93.013l-143.36 81.92v167.253l143.36-73.387v-175.787zM914.773 161.28l-153.6-78.507v186.027l153.6 76.8v-184.32z" />
<glyph unicode="&#xe918;" glyph-name="tour-task01" d="M981.333 855.893h-445.44v37.547c0 13.653-10.24 23.893-23.893 23.893s-23.893-10.24-23.893-23.893v-37.547h-445.44v-662.187h411.307l-174.080-174.080c-5.12-5.12-6.827-10.24-6.827-17.067s1.707-11.947 6.827-17.067c8.533-8.533 23.893-8.533 34.133 0l174.080 174.080v-126.293c0-13.653 10.24-23.893 23.893-23.893s23.893 10.24 23.893 23.893v126.293l174.080-174.080c5.12-5.12 10.24-6.827 17.067-6.827s11.947 1.707 17.067 6.827c5.12 5.12 6.827 10.24 6.827 17.067s-1.707 11.947-6.827 17.067l-174.080 174.080h411.307v662.187zM933.547 808.107v-566.613h-843.093v566.613h843.093z" />
<glyph unicode="&#xe919;" glyph-name="tour-task02" d="M187.733 917.333c-80.213 0-145.067-64.853-145.067-145.067s64.853-145.067 145.067-145.067 145.067 64.853 145.067 145.067-64.853 145.067-145.067 145.067zM187.733 657.92c-63.147 0-114.347 51.2-114.347 114.347s51.2 114.347 114.347 114.347 114.347-51.2 114.347-114.347-51.2-114.347-114.347-114.347zM187.733 593.067c-80.213 0-145.067-64.853-145.067-145.067s64.853-145.067 145.067-145.067 145.067 64.853 145.067 145.067-64.853 145.067-145.067 145.067zM187.733 333.653c-63.147 0-114.347 51.2-114.347 114.347s51.2 114.347 114.347 114.347 114.347-51.2 114.347-114.347-51.2-114.347-114.347-114.347zM187.733 268.8c-80.213 0-145.067-64.853-145.067-145.067s64.853-145.067 145.067-145.067 145.067 64.853 145.067 145.067-64.853 145.067-145.067 145.067zM187.733 9.387c-63.147 0-114.347 51.2-114.347 114.347s51.2 114.347 114.347 114.347 114.347-51.2 114.347-114.347-51.2-114.347-114.347-114.347zM225.28 814.933l-54.613-52.907-22.187 22.187c-5.12 5.12-15.36 5.12-22.187 0s-5.12-15.36 0-22.187l32.427-32.427c3.413-3.413 6.827-5.12 10.24-5.12s8.533 1.707 10.24 5.12l64.853 64.853c5.12 5.12 5.12 15.36 0 22.187-3.413 5.12-11.947 5.12-18.773-1.707zM225.28 490.667l-54.613-52.907-22.187 22.187c-5.12 5.12-15.36 5.12-22.187 0-5.12-5.12-5.12-15.36 0-22.187l32.427-32.427c3.413-3.413 6.827-5.12 10.24-5.12s8.533 1.707 10.24 5.12l64.853 64.853c5.12 5.12 5.12 15.36 0 22.187-3.413 5.12-11.947 5.12-18.773-1.707zM397.653 806.4h291.84c8.533 0 15.36 6.827 15.36 15.36s-6.827 15.36-15.36 15.36h-291.84c-8.533 0-15.36-6.827-15.36-15.36s8.533-15.36 15.36-15.36zM397.653 709.12h568.32c8.533 0 15.36 6.827 15.36 15.36s-6.827 15.36-15.36 15.36h-568.32c-8.533 0-15.36-6.827-15.36-15.36 1.707-8.533 8.533-15.36 15.36-15.36zM397.653 482.133h291.84c8.533 0 15.36 6.827 15.36 15.36s-6.827 15.36-15.36 15.36h-291.84c-8.533 0-15.36-6.827-15.36-15.36 1.707-8.533 8.533-15.36 15.36-15.36zM965.973 413.867h-568.32c-8.533 0-15.36-6.827-15.36-15.36s6.827-15.36 15.36-15.36h568.32c8.533 0 15.36 6.827 15.36 15.36s-6.827 15.36-15.36 15.36zM397.653 157.867h291.84c8.533 0 15.36 6.827 15.36 15.36s-6.827 15.36-15.36 15.36h-291.84c-8.533 0-15.36-6.827-15.36-15.36 1.707-8.533 8.533-15.36 15.36-15.36zM965.973 89.6h-568.32c-8.533 0-15.36-6.827-15.36-15.36s6.827-15.36 15.36-15.36h568.32c8.533 0 15.36 6.827 15.36 15.36s-6.827 15.36-15.36 15.36z" />
<glyph unicode="&#xe91a;" glyph-name="tour-task03" d="M512 917.333c-259.413 0-469.333-209.92-469.333-469.333s209.92-469.333 469.333-469.333c259.413 0 469.333 209.92 469.333 469.333s-209.92 469.333-469.333 469.333zM512 40.107c-225.28 0-407.893 182.613-407.893 407.893s182.613 407.893 407.893 407.893c225.28 0 407.893-182.613 407.893-407.893s-182.613-407.893-407.893-407.893zM698.027 478.72h-155.307v155.307c0 17.067-13.653 30.72-30.72 30.72s-30.72-13.653-30.72-30.72v-155.307h-155.307c-17.067 0-30.72-13.653-30.72-30.72s13.653-30.72 30.72-30.72h155.307v-155.307c0-17.067 13.653-30.72 30.72-30.72s30.72 13.653 30.72 30.72v155.307h155.307c17.067 0 30.72 13.653 30.72 30.72s-13.653 30.72-30.72 30.72z" />
</font>
</defs>
</svg>
